<svg id="Layer_1" data-name="Layer 1" xmlns="http://www.w3.org/2000/svg" viewBox="0 0 747.74 1517.05"><defs><style>.cls-1{fill:#0063ac;}.cls-2{fill:#fff;}</style></defs><g id="Artboard_1" data-name="Artboard 1"><g id="Group_1332" data-name="Group 1332"><rect id="Rectangle_2263" data-name="Rectangle 2263" class="cls-1" x="0.55" y="769.86" width="362.26" height="362.26"/><path id="Path_1182" data-name="Path 1182" class="cls-2" d="M92.36,829V971.73c0,75.21,37.61,103.42,86.83,103.42,52,0,91.81-30.42,91.81-104.53v-141H239.48V972.83c0,53.1-23.23,76.88-58.63,76.88-32.63,0-56.41-23.23-56.41-76.88V829.59Z"/><rect id="Rectangle_2264" data-name="Rectangle 2264" class="cls-1" x="385.48" y="769.86" width="362.26" height="362.26"/><path id="Path_1183" data-name="Path 1183" class="cls-2" d="M505,1071.83s-.56-172.55-2.22-203l1.11-.55c12.17,26,121.67,203.52,121.67,203.52H657V830.14H627.72s.56,168.14,3.32,200.77l-1.1.55c-11.06-24.89-120-200.76-120-200.76H475.08v241.69Z"/><rect id="Rectangle_2265" data-name="Rectangle 2265" class="cls-1" x="385.48" y="1154.24" width="362.26" height="362.26"/><path id="Path_1184" data-name="Path 1184" class="cls-2" d="M627.72,1232.22c-14.38-12.72-37.05-19.91-68-19.91a362.56,362.56,0,0,0-59.73,5v238.92h31v-96.79c8.29,1.66,16.59,2.77,24.89,2.22,30.41,0,57.51-8.85,74.11-26.55,12.72-12.72,18.8-29.87,18.8-51.43a65.27,65.27,0,0,0-21-51.44"/><path id="Path_1185" data-name="Path 1185" class="cls-1" d="M556.93,1337.3a83.47,83.47,0,0,1-26-2.76v-94a169.82,169.82,0,0,1,29.31-2.77c34.29,0,57,15.49,57,47.56,0,33.19-22.68,52-60.29,52"/><rect id="Rectangle_2266" data-name="Rectangle 2266" class="cls-1" y="1154.79" width="362.26" height="362.26"/><path id="Path_1186" data-name="Path 1186" class="cls-2" d="M255,1241.07c-21-19.91-53.09-29.87-97.89-29.87a454,454,0,0,0-66.92,5V1454a392.32,392.32,0,0,0,57,2.76c47,0,84.07-12.16,107.3-34.84,22.12-22.12,34.84-54.75,34.84-94,0-38.71-12.72-66.92-34.29-86.83"/><path id="Path_1187" data-name="Path 1187" class="cls-1" d="M153.2,1431.88a151,151,0,0,1-31.53-1.66V1238.86a203,203,0,0,1,36.51-3.32c65.81,0,98.44,35.39,97.89,92.91,0,66.37-35.95,104-102.87,103.43"/><rect id="Rectangle_2267" data-name="Rectangle 2267" class="cls-1" x="0.55" width="747.19" height="747.19"/><path id="Path_1188" data-name="Path 1188" class="cls-2" d="M641.55,388.8c-10.51,14.93-23.23,28.76-32.63,43.69,1.11-12.16,2.77-26.54-2.21-38.16a320.57,320.57,0,0,1-17.15-75.77l.56-10.51c6.08,27.1,33.18,46.46,31,76.88a60.2,60.2,0,0,1-3.32,19.91l.55.55,1.11-1.1c3.87-14.94,6.08-31,12.17-44.8,8.85-19.91,19.91-40.37,15.48-65.26,13.28,29.31,8.85,67.47-5.53,94.57"/><path id="Path_1189" data-name="Path 1189" class="cls-2" d="M625,233.94a92.74,92.74,0,0,1,8.85,89.6,141.13,141.13,0,0,0-10,37.06c-.55-2.22-1.66-5-1.66-7.75-7.19-26.54-32.63-45.9-42.58-71.34a139.9,139.9,0,0,1-7.74-26c11.06,20.47,38.71,31,46.45,54.2,3.32,5.53,2.77,12.72,5,19.36a2,2,0,0,0,1.11-.55c-2.77-23.78-2.77-47.56,1.1-71.35-.55-12.72-1.1-24.33-8.29-34.29,2.76,2.22,4.42,7.19,7.74,11.06"/><path id="Path_1190" data-name="Path 1190" class="cls-2" d="M612.24,229c5,21-2.21,41.48,2.21,62.49l-.55.56c-11.06-22.13-35.4-33.19-52-50.89a71.85,71.85,0,0,1-16-37.6c9.4,23.22,35.4,28.2,49.78,47.56a73.86,73.86,0,0,1,10,15.48l.56-.55C597.86,247.77,595.1,227.86,589,208a47.14,47.14,0,0,0-16.59-22.12c19.36,5,36,24.89,39.82,43.14"/><path id="Path_1191" data-name="Path 1191" class="cls-2" d="M560.8,181.4c14.39,12.72,21,29.87,25.45,47.57L589,234.5A206.89,206.89,0,0,1,534.81,177l-16.59-17.15c14.38,6.64,29.86,10.51,42.58,21.57"/><path id="Path_1192" data-name="Path 1192" class="cls-2" d="M283.72,164.81a214.57,214.57,0,0,1,90.7-21.57c111.17,1.11,200.21,91.81,199.66,203a193.21,193.21,0,0,1-6.64,50.32c-13.27,53.1-58.62,107.3-110.61,128.87-58.63,28.76-142.14,21.57-194.13-16-72.45-49.78-102.31-136-80.74-220.67,12.72-49.22,52.54-100.11,101.76-123.89"/><path id="Path_1193" data-name="Path 1193" class="cls-2" d="M226.2,163.15c-14.93,12.72-24.88,28.76-35.39,44.25-10,12.17-22.12,19.91-33.19,30.42,6.09-12.17,6.09-27.1,14.94-38.17,11.61-21.56,33.73-28.75,53.64-36.5"/><path id="Path_1194" data-name="Path 1194" class="cls-2" d="M146,208a47.1,47.1,0,0,1,26-17.7c-19.35,13.28-18.8,37.61-24.33,58.07-1.66,7.75-5.53,14.38-7.19,22.13l.55.55c3.87-8.85,8.85-17.15,16-23.78,14.38-12.72,34.84-21,41.48-40.38-.55,26.55-22.68,47.57-43.69,62.5a90.74,90.74,0,0,0-22.12,26c-.56-6.63,1.1-13.27.55-20.46C131.63,251.64,130,225.1,146,208"/><path id="Path_1195" data-name="Path 1195" class="cls-2" d="M106.19,287c-.55-23.78,8.85-42.59,23.23-60.29.55-.55.55-.55,1.1-.55-14.93,23.23-2.76,52-3.32,78l-1.66,26.55c.56.55.56,1.11,1.11.55.55-2.76,1.11-6.08,1.66-8.85,3.32-21.57,22.12-37.05,38.71-52a47.35,47.35,0,0,0,8.3-12.17,121,121,0,0,1-8.85,31.52c-12.72,24.89-36.5,45.35-40.37,73.56-3.32-27.1-21.57-47.56-19.91-76.32"/><path id="Path_1196" data-name="Path 1196" class="cls-2" d="M95.13,320.78a96,96,0,0,1,6.08-21.57c-6.08,31,14.93,53.64,21.57,80.74,2.77,10,3.32,21,7.74,30.42.56.55.56-.55,1.11-.55-10.51-28.76,4.42-55.31,19.36-77.43a78.75,78.75,0,0,0,7.74-19.91c1.66,12.72-1.66,28.21-3.32,41.48-3.32,17.14-8.85,33.18-13.27,49.77a74.7,74.7,0,0,0-.56,33.19l-1.66-1.11c-11.06-19.91-32.63-35.39-38.71-57.52-7.19-19.35-9.4-38.71-6.08-57.51"/><path id="Path_1197" data-name="Path 1197" class="cls-2" d="M93.47,381.61c2.76,33.19,37.61,50.33,54.2,77.43a91.58,91.58,0,0,0,12.17,16.59c-1.11-3.32-3.88-6.63-5.54-9.95a78.75,78.75,0,0,1-6.63-39.27c1.66-16.59,8.85-32.63,6.08-50.33,14.38,31,10,70.24,18.25,104,2.22,7.19,6.09,13.82,8.85,21-29.31-19.91-70.24-39.26-83.51-76.32a141,141,0,0,1-3.87-43.14"/><path id="Path_1198" data-name="Path 1198" class="cls-2" d="M111.72,456.83c16.59,37.61,58.07,40.37,85.72,63.05A67.07,67.07,0,0,0,214,530.94l.55-.55a78.46,78.46,0,0,1-18.25-19.91c-16.59-22.68-10.51-54.2-22.68-78.54a190.56,190.56,0,0,1,27.66,42c10,24.34,13.82,52,37.05,70.8-24.89-8.3-54.2-6.09-76.32-21-24.89-14.38-45.91-39.27-50.33-66.92"/><path id="Path_1199" data-name="Path 1199" class="cls-2" d="M154.3,526.51c26.55,30.42,69.69,19.91,105.09,28.21a34.64,34.64,0,0,0,14.93,1.66c-3.87-2.77-10-2.77-14.93-5-27.66-9.95-31.53-39.82-47-59.73,19.35,12.72,35.39,29.87,53.09,46.46a86.7,86.7,0,0,0,44.25,19.36c-3.88,1.1-8.85,1.1-13.28,2.21-28.76,7.19-61.39,18.8-91.81,8.29-21.57-6.08-39.82-21.57-50.33-41.48"/><path id="Path_1200" data-name="Path 1200" class="cls-2" d="M513.79,596.75c-29.86,11.06-60.83-.55-84.06-18.25-9.4-6.08-17.7-14.93-30.42-13.82-4.42,0-8.29,0-12.72,1.1a247.51,247.51,0,0,1,63.05,43.69A99,99,0,0,1,438.58,620c-18.81-19.91-39.27-39.27-62.5-50.33a37.34,37.34,0,0,0-12.72,5.53,202.29,202.29,0,0,0-51.43,45.36l-12.17-10a218.61,218.61,0,0,1,63.05-44.8c-22.68-7.19-37.61,12.17-54.76,21.57-19.91,14.38-49.22,21-73.55,11.06a83.11,83.11,0,0,1-35.4-24.33c19.36,13.27,47.57,14.38,69.13,6.08,29.32-12.72,59.18-28.76,94.58-21,5.53,0,11.06,5.53,16,1.1a109,109,0,0,1,78,10l23.23,8.85a77.78,77.78,0,0,0,68-7.19c-7.74,11.61-20.46,20.46-34.29,24.88"/><path id="Path_1201" data-name="Path 1201" class="cls-2" d="M545.87,566.33c-33.73,12.72-67.47-2.76-99.55-8.29l-6.08-1.11v-.55A93.57,93.57,0,0,0,482.82,537c17.7-17.14,33.74-35.39,54.2-48.67-14.93,19.36-16.59,46.46-40.92,58.07-6.09,3.88-13.83,5-19.91,7.75,8.85.55,17.14-3.32,26-3.87,32.63-5,70.24,0,93.47-28.21-8.85,20.46-29.87,37-49.78,44.24"/><path id="Path_1202" data-name="Path 1202" class="cls-2" d="M564.68,532c-17.15,5-35.4,6.09-52,11.62,28.21-24.34,26.55-61.39,45.35-90.15,5.53-8.3,11.61-16.59,17.7-24.33-11.06,23.22-6.64,53.09-19.36,75.21a87.39,87.39,0,0,1-20.46,24.34c2.76,0,5-2.77,7.19-3.88,21.57-21.56,49.22-27.1,72.45-44.79,9.4-7.19,17.14-16.6,21.57-27.1-4.43,35.39-39.27,68.58-72.45,79.08"/><path id="Path_1203" data-name="Path 1203" class="cls-2" d="M606.71,471.76c-13.27,8.85-26.55,16.59-39.27,26.55V497.2c19.36-32.63,10-76.87,22.12-112.82L594,372.21c-2.77,22.12,7.19,40.93,6.64,63.05a70,70,0,0,1-12.17,35.95h1.1a391.79,391.79,0,0,1,28.21-37.61c17.15-16.59,34.84-33.74,37.06-57,5.53,39.27-16,73.56-48.12,95.13"/><path id="Path_1204" data-name="Path 1204" class="cls-1" d="M456.83,469l1.1-1.66a149,149,0,0,0,17.7-14.94h.56c-1.11-.55-2.77,1.11-3.87.56-2.77-1.11-3.32-3.87-3.32-6.64L456.83,433.6l-.55-1.66a21.79,21.79,0,0,1-4.43,5.53c0,1.66-.55,3.87,1.11,5,3.87,1.11,8.85,3.87,10,8.29-1.66,4.43-10,8.3-5,13.28,2.77,2.21-1.65,3.32-1.1,5"/><path id="Path_1205" data-name="Path 1205" class="cls-1" d="M386,307.5c2.21,1.11,3.32-1.1,5.53-1.66a11.06,11.06,0,0,1,6.63,4.43c1.66.55,3.32,0,5-1.11,1.11-8.29,11.06-7.19,14.38-14.93l-1.66.55c-.55-1.1-2.76-.55-2.76-2.76a17.16,17.16,0,0,1,6.08-5A92.06,92.06,0,0,0,391,274.32c-3.87-.56-8.29-1.11-12.16-2.77,1.66,5.53.55,14.38,1.66,21l7.19,2.76c2.21-3.31,6.63-3.87,8.85-7.74,1.1-1.11,2.76,0,3.87,1.11,0,2.76,0,5.53-1.11,7.74-3.87,6.64-9.95,7.19-13.27,11.06"/><path id="Path_1206" data-name="Path 1206" class="cls-1" d="M491.67,374.42c-3.87,13.83-9.4,26.55-17.7,38.16a55.3,55.3,0,0,1-10.5,12.17l8.85,7.74a2,2,0,0,0,.55-1.66,3,3,0,0,1,1.66-2.76h.55c4.43,0,4.43,5,7.19,7.19-.55,3.87,2.77,7.19,1.66,10.51a146.12,146.12,0,0,0,39.82-95.13l1.11-1.66c-9.4.55-18.25.55-27.65.55L495,349c0,6.09-.55,12.17-1.1,17.7l3.32,3.32c1.1,1.66.55,3.32-.56,5-1.66,1.1-3.32.55-5-.56"/><path id="Path_1207" data-name="Path 1207" class="cls-1" d="M467.89,286.49a134.37,134.37,0,0,0-13.27-17.7l-.56,1.1c-8.85,9.41-19.35,19.36-28.2,29.32a6.67,6.67,0,0,0,2.76,2.76c.56-2.76,1.66-4.42,1.66-7.19,2.21-3.32,6.09-1.1,8.85-.55,5-1.11,8.85,1.1,14.38,1.1,3.32,1.66,3.87,6.09,7.19,8.3a2.9,2.9,0,0,1-1.1,3.87h0c1.1,7.75,5-1.66,8.29-.55,1.66.55,3.32.55,5,2.21.55,3.32,4.42,2.77,5,5.53-.56,1.66-1.66,1.66-2.77,2.77,1.11,2.76-3.32,5-1.66,8.29,5.53,1.11,6.09-5.53,8.85-8.29a60.06,60.06,0,0,0-5.53-14.94c-3.32-.55-5.53-5-8.3-5.53-7.19-2.76,0-6.63-.55-10.5"/><path id="Path_1208" data-name="Path 1208" class="cls-1" d="M378.85,494.44a175,175,0,0,1,23.78-3.32c-1.66-.55-3.32-1.11-4.43-2.77-5-.55-7.19-5-8.29-8.85-.56-2.76,1.1-5,2.21-7.19-1.66-3.87-8.3-1.1-11.61-2.76-.56-1.11-1.66-1.66-3.32-2.21l1.66,2.21c1.1,8.29.55,16.59,0,24.89"/><path id="Path_1209" data-name="Path 1209" class="cls-1" d="M385.48,416.46c2.77.55.56,3.31,2.77,4.42,3.87-1.11,7.19,3.32,10.51.55-.56-5,5-4.42,7.74-5.53,4.42-2.76,9.4-6.08,8.85-12.17l-.55-1.1c-3.32,0-5,2.76-7.19,4.42-2.77,1.66-4.43-2.76-6.64-1.66,0,.56.55.56,1.11,1.11a2.47,2.47,0,0,1,0,2.76c-3.32,3.32-5-1.65-8.3-1.1v1.1c0,.56-.55,1.66-1.11,1.11-1.66-3.32-6.08-2.21-8.29-5-1.11-.55-2.77.56-3.32,1.11-.55,1.66-3.87-.55-3.32,2.76-2.77,1.11-2.77,3.32-4.43,5-3.31-.55-4.42,2.77-7.74,2.77.56.55,0,1.66,1.11,1.66,1.66,1.1,3.87,1.1,6.08.55,3.88-5,8.85-.55,12.72-2.76"/><path id="Path_1210" data-name="Path 1210" class="cls-1" d="M414.8,377.74a8.9,8.9,0,0,0,1.66,5c3.87-.55,2.21,5,5.53,4.42,1.66-.55,0-2.21.55-3.32-.55-3.31-3.32-3.31-5.53-5-.55-.56.55-1.11.55-1.66-.55-1.66-1.66-.56-2.76.55"/><path id="Path_1211" data-name="Path 1211" class="cls-1" d="M410.37,240a157.49,157.49,0,0,0-32.08-6.64l1.11,2.21-.55,27.1,2.76-.55c16,1.66,31.53,8.3,44.8,18.25l.55,2.21c4.43-6.08,11.07-11.61,16.6-17.69l5-2.77L445.77,261a120.22,120.22,0,0,0-35.4-21"/><path id="Path_1212" data-name="Path 1212" class="cls-1" d="M225.1,351.75,227.31,370a127.72,127.72,0,0,1,3.87,21c1.11-1.66.55-4.42,3.32-5-1.11-2.22,2.21-3.88.55-6.09,0-5,2.21-9.4,5.53-13.27,5-.55,5.53-7.19,10.51-7.19,2.77,0,3.87,3.32,5.53,5a18.78,18.78,0,0,1-2.21-14.38l-2.21,1.1c-9.4,0-18.25,0-27.66-.55Z"/><path id="Path_1213" data-name="Path 1213" class="cls-1" d="M403.73,398.2c2.77-2.76,7.19-2.76,7.75-6.08-3.32-.55-5.53,1.11-7.75,3.32,0,.55-1.65,2.21,0,2.76"/><path id="Path_1214" data-name="Path 1214" class="cls-1" d="M467.34,347.88l3.32,3.31c3.31,2.22,1.1,6.64,4.42,8.3,3.87,1.66,5.53,6.64,7.19,9.95.55-1.1.55-1.65,1.11-2.76,1.1-5.53,1.1-11.61,2.76-17.15a50.86,50.86,0,0,1-18.8-1.65"/><path id="Path_1215" data-name="Path 1215" class="cls-1" d="M427,418.11c3.32,1.11,5.53,5,10,3.88,3.32-1.66,9.4,1.1,12.17-2.77-.56-3.87,2.76-6.08,4.42-9.4l1.11-.55c1.66,2.21,1.66,5.53,2.76,7.74,2.77-2.77,5-6.09,7.75-9.4a93.37,93.37,0,0,0,14.38-31,32.8,32.8,0,0,0-7.75,1.11c-2.76-.55-6.08,1.66-8.85-.55-1.1-.55-1.66.55-1.1,1.1-1.11,1.66-1.66,3.32-4.43,2.77-1.66-1.11-1.66-2.77-2.76-3.87a7,7,0,0,1-.56,3.32,45.47,45.47,0,0,0-4.42,6.63c-2.21,2.22-5.53,1.66-7.74,3.32-.56,5-5.53,3.87-8.85,5.53-.56.55.55.55.55,1.11A4.31,4.31,0,0,0,438,396c3.87,1.11,3.31-3.87,5.53-6.08,2.21-.55,3.87-2.21,6.08-.55,2.21,2.76,2.77,6.63,2.77,9.95-2.77,2.77-1.11,6.08-2.77,8.85.55,3.32-3.32,5-3.32,8.3a9.38,9.38,0,0,1-5.53,1.65,95.92,95.92,0,0,0-24.89-5.53c-1.1,0-1.1,1.11-1.1,1.66,3.87,1.66,8.29,2.22,12.16,3.87"/><path id="Path_1216" data-name="Path 1216" class="cls-1" d="M367.79,504.94l1.1-1.65-3.32,1.1A156.37,156.37,0,0,1,263.81,460.7l-.55,1.11-20.47,21A199.59,199.59,0,0,0,349,532.6c6.64.55,13.27,1.1,19.91,2.76l-1.66-2.76.56-27.66Z"/><path id="Path_1217" data-name="Path 1217" class="cls-1" d="M327.41,397.65c10.51,8.3,22.68,14.38,35.95,16.59.56-2.76-.55-6.08,1.11-8.29,1.1-2.22,3.87-2.22,5.53-1.66a1.78,1.78,0,0,0,1.66-1.66v-.55c-2.77-.56-1.66-3.88-2.77-5.54,0-1.1,1.66-.55,1.11-2.21-1.66-1.66,1.1-3.32-.55-5l1.1-1.1c-6.08,2.76-12.72-1.11-17.7-3.32-2.76-1.66-6.08-2.76-7.19-6.08-5.53,6.08-11.61,12.72-18.25,18.8"/><path id="Path_1218" data-name="Path 1218" class="cls-1" d="M317.46,366.68c-1.11-.55-1.11-.55-1.66.55a2,2,0,0,1-1.66-.55c0-5.53-6.09-2.21-8.85-5.53,2.76,5,4.42,11.06,7.19,16,1.66,5,5.53,8.29,7.74,12.72,2.21-3.32,5.53-6.64,8.3-10,.55-1.1,0-2.76-1.11-3.87-1.1-2.21,0-5-1.66-7.19-2.76,1.11,1.11,3.32-.55,5-1.11.55-2.21-.55-2.77-1.11a7.82,7.82,0,0,1-5-4.42c2.76,0,0-.55,0-1.66"/><path id="Path_1219" data-name="Path 1219" class="cls-1" d="M336.26,369.44a13.24,13.24,0,0,1-3.87,6.64l.55.55c2.77-1.65,3.88-5,7.19-5Z"/><path id="Path_1220" data-name="Path 1220" class="cls-1" d="M365,466.23a113.42,113.42,0,0,1-64.16-24.33c.56,2.76,3.88,3.87,2.77,7.19-1.66,2.76-5,2.76-7.74,2.76-5.53-1.11-10,3.32-14.93,3.87-5,1.66-6.64-4.42-11.07-3.87,27.66,24.34,59.18,39.27,96.24,41.48l2.76,1.66-1.1-3.32v-26Z"/><path id="Path_1221" data-name="Path 1221" class="cls-1" d="M257.73,453.51a75.2,75.2,0,0,1-9.4-9.4C245,443,241.69,440.79,240,438c-1.11-1.1,0-3.31-1.11-3.87l-1.1,1.66c-3.32,1.66-5-1.66-7.19-3.32-3.32-1.66-1.66-7.74-5.53-6.63-1.66,0-2.21-1.66-3.32-2.77-3.87.55-5-3.87-7.19-6.08-.56,1.1,0,2.21-1.11,2.76-3.87,1.11-5.53-3.87-8.29-6.08A2.91,2.91,0,0,1,203,414.8a11.79,11.79,0,0,1-3.87-8.3c-3.32-3.87-1.66-9.4-1.1-14.38.55-1.11,2.21-1.66,1.66-3.32,1.1-2.21,3.32-2.21,5.53-2.76,1.1.55,1.66,1.1,1.66,1.66,1.1-1.11,3.87,0,3.32-2.77a16.94,16.94,0,0,1,6.63-2.76,24.69,24.69,0,0,0,4.43,6.08L220.12,386a140.57,140.57,0,0,1-5-30.42c0-.55-1.1-1.11-.55-1.66l.55.55a18.59,18.59,0,0,1,.56-5.53l-2.77,1.11-27.65-.55a211.14,211.14,0,0,0,24.33,87.38A251.87,251.87,0,0,0,236.16,474l19.91-20.46Z"/><path id="Path_1222" data-name="Path 1222" class="cls-1" d="M289.8,221.22c-6.08,4.43-12.16,10-18.25,13.28a127.3,127.3,0,0,1,19.91,18.8L292,255a121.13,121.13,0,0,1,59.73-30.42,48.81,48.81,0,0,1,15.48-1.1,248.62,248.62,0,0,1-.55-28.76c-27.1,1.66-54.2,10.51-76.88,26.54"/><path id="Path_1223" data-name="Path 1223" class="cls-1" d="M266,324.65a70.71,70.71,0,0,1-2.76,14.93A32.21,32.21,0,0,1,276,339c-2.21-1.11-.56-3.88-1.66-5.53-.55-2.77-.55-5.53,1.66-7.19-.56-3.88,3.87-6.09,4.42-10,1.11-3.87,6.09-1.11,8.3-3.32,1.66-1.1.55-2.21.55-3.32,1.66-2.76,5-2.76,7.74-3.87a27.39,27.39,0,0,1,6.64-7.19c6.09.56,6.09-8.29,11.62-8.29-7.75-6.64-14.94-13.28-22.13-20.47-14.38,15.49-23.23,34.29-27.1,54.76"/><path id="Path_1224" data-name="Path 1224" class="cls-1" d="M269.34,365.57c.56-1.66-2.76-2.21-2.21-3.87,1.66-3.87,0-9.95,5-11.06a11.13,11.13,0,0,1-9.4-1.11l1.1,2.77c.55,6.64,2.77,12.72,1.66,19.36,1.66-2.22,1.66-5.53,3.87-6.09"/><path id="Path_1225" data-name="Path 1225" class="cls-1" d="M297,436.92l-.55-.55.55,1.1Z"/><path id="Path_1226" data-name="Path 1226" class="cls-1" d="M263.81,242.79,253.3,256.62a159.42,159.42,0,0,0-28.76,83l27.1-.55,2.77,1.1c-1.11-.55-1.11-1.66-1.11-2.76a121.25,121.25,0,0,1,31.53-74.67c-7.74-6.63-14.38-13.82-21-21Z"/><path id="Path_1227" data-name="Path 1227" class="cls-1" d="M348.43,429.18a18.58,18.58,0,0,1,7.74-5c-8.85,1.66-16.59-5-24.33-8.3a39,39,0,0,1-12.72-10.51,175,175,0,0,1-19.91,20.47c3.31.55,5,3.32,7.19,5a132,132,0,0,0,50.88,22.68l-5-2.21c-3.32-3.87-8.85-8.85-8.85-14.38,3.87-1.11,3.32-5,5-7.74"/><path id="Path_1228" data-name="Path 1228" class="cls-1" d="M279.85,350.09l-.55,5.53c-1.11,3.32-5,.55-7.19,2.76-1.11,1.66,0,3.88,1.1,5.53-2.76,6.09,6.09,8.3,6.09,14.38,2.76,3.32-.56,8.85,3.31,12.17,1.11,6.64-1.1,14.93,5,20.46L288.7,417c1.1,4.42-5,3.32-4.43,7.19,1.11-.56,1.66,1.1,1.66,1.1v-.55a225.94,225.94,0,0,1,25.44-26l-3.87-3.87A113,113,0,0,1,292,360.6l-2.77-1.66a48.56,48.56,0,0,0-1.1,8.85l-1.11,1.1c-2.21,0-3.32-1.66-5-2.76-.55-1.11-1.66-2.77.56-3.88a4.92,4.92,0,0,1,2.76.56c1.11-1.11.56-2.77,1.11-3.87.55-2.77-1.66-5-.56-6.64,1.66-.55,3.32,2.21,3.87,3.32,1.66.55,3.32-1.11,5-1.66,0-1.66,2.77-3.87-.55-5a16.85,16.85,0,0,0-.56-11.61c-1.1-3.32-5-2.77-7.74-2.77-8.29,2.77,1.11,8.85-.55,13.27-.55,3.88-3.32,1.11-5.53,2.22"/><path id="Path_1229" data-name="Path 1229" class="cls-1" d="M534.81,349.53l-1.66-1.1,1.11,2.76a160.67,160.67,0,0,1-31.53,88.49,51.35,51.35,0,0,1-11.61,12.72A204.85,204.85,0,0,1,513.24,474l.55-1.66a190.33,190.33,0,0,0,49.78-121.67l1.11-2.76-1.66.55Z"/><path id="Path_1230" data-name="Path 1230" class="cls-1" d="M265.47,227.86l.55-1.11a158.07,158.07,0,0,1,101.77-42.58l-1.11-2.77-.55-23.78,1.1-2.76A191.2,191.2,0,0,0,260.49,193c-6.08,3.87-11.06,10.51-17.7,14.38h1.11c7.74,5.53,14.93,12.72,21.57,20.46"/><path id="Path_1231" data-name="Path 1231" class="cls-1" d="M366.13,234.5a119.24,119.24,0,0,0-66.37,28.2,237.63,237.63,0,0,1,21,19.91c.55-.55,1.1-1.66,1.66-2.21,8.85-7.19,19.35-12.17,30.41-15.48a34.55,34.55,0,0,1,14.94-1.66,129.49,129.49,0,0,1,0-29.32Z"/><path id="Path_1232" data-name="Path 1232" class="cls-1" d="M367.79,273.77a69.59,69.59,0,0,0-42.59,19.91h2.21c2.77,2.76,6.09,1.65,8.3,5,1.1,1.66-1.66,1.66-1.66,3.32.55,0,1.1.55,1.66,1.11,1.66.55,1.66-1.11,2.21-1.66,2.76-2.77,2.76,2.76,5.53,2.76,1.66-1.1,3.87-1.1,5,.56h0c1.66-1.11,5,0,5.53-2.77,3.32-3.32,1.1-8.29,6.08-10.51,1.66,1.11,0,2.77.56,3.87,3.31,1.11,6.63-2.76,8.85.56a48.8,48.8,0,0,1-1.66-22.12"/><path id="Path_1233" data-name="Path 1233" class="cls-1" d="M368.34,318.56c-2.77,5-7.74,6.09-12.72,7.75-1.11,1.66-1.11,5-3.87,5-1.11,2.22-4.43,3.32-3.32,6.64A41.13,41.13,0,0,0,346.77,349c-6.09,3.87-3.87-5-7.19-6.63L338.47,344c-1.1.56-1.66-.55-2.76-1.1s-2.77-.55-3.32.55c-1.11,2.21-3.32,3.87-2.77,7.19-.55,1.66-3.32,1.11-3.32,3.32a60.26,60.26,0,0,0,10-1.11c2.21.56,3.87-1.1,6.64-1.1.55.55,1.66,1.1,1.1,2.76h1.11q2.49-1.65,1.66-5c.55-2.21,2.76-2.21,3.87-2.76,1.1.55.55,1.66.55,2.76,4.43,1.66-1.1,5-1.66,7.19-1.1,1.66,0,6.09-3.87,5.53-.55-.55-1.1-1.1-1.1-1.65H344a5.66,5.66,0,0,0,2.77,4.42c2.76-2.21,2.76-6.08,7.19-6.64,1.66-2.21-1.11-5.53,2.21-7.19,5,0,10.51-2.21,14.93,1.66-.55,1.66-1.1,2.77.56,3.87a18.73,18.73,0,0,1-3.32,6.64c.55,1.11,0,2.77-1.11,3.87-1.11,6.09-8.3,3.32-12.17,5.53a34.48,34.48,0,0,0,22.13,6.09c4.42-.56,2.76-5.53,5-7.75,1.11-7.19,7.75-2.21,11.62-3.87a29,29,0,0,0,3.32-8.85,8.13,8.13,0,0,1-2.77-7.74c-1.66-2.21-1.66-6.64-5.53-7.19-.55-.55,0-1.66.55-2.77,0-2.21,2.22-2.76,2.77-5-2.21-1.66-1.66-5-1.66-6.64-3.87,1.11-4.42-3.87-7.19-5-.55-2.21-3.32-2.76-5-3.32-5,2.22-5.53-3.31-8.85-5-.55-1.11-1.1-2.77,0-3.32,1.66-1.66,3.87-.55,6.09-.55l-1.66-1.11c-1.66-1.66-5-.55-7.19,0,1.66,1.66.55,5,1.66,7.74"/><path id="Path_1234" data-name="Path 1234" class="cls-1" d="M215.14,339.58l-.55-3.87a163.27,163.27,0,0,1,29.86-85.17,85.64,85.64,0,0,1,13.28-14.94c-6.64-6.08-13.28-13.27-19.92-19.91l-.55-2.76a192.13,192.13,0,0,0-50.88,109c-1.11,6.08-.55,12.17-1.66,18.25a111.52,111.52,0,0,1,30.42-.55"/><path id="Path_1235" data-name="Path 1235" class="cls-1" d="M484.48,458.49c-2.76,5.53-8.85,8.85-13.27,13.27-6.64,6.64-17.15,7.74-20.46,17.15-3.32,3.31-5,8.29-9.41,9.95-1.65,5-7.19,4.43-9.95,7.74-8.3,7.75-13.83-5-21.57-6.08l-14.93,2.77a48.87,48.87,0,0,1-15.49.55,285.62,285.62,0,0,1,0,31l1.66-1.11a196,196,0,0,0,125-52.54l-21-19.91Z"/><path id="Path_1236" data-name="Path 1236" class="cls-1" d="M378.85,180.85a2.86,2.86,0,0,1,1.1-2.21c1.11-1.11,2.77.55,3.32,1.1,0,1.11.56,3.88-.55,5,1.1.56,1.66-.55,2.76-.55a149.82,149.82,0,0,1,63,19.36V203c3.87-1.66,8.85-4.42,12.72-1.1,5-1.66,5.53,3.87,9.4,5a19.36,19.36,0,0,1,10.51,13.27c1.11,1.66,3.87,3.32,3.87,5A55.75,55.75,0,0,1,500,208l3.31-1.1c-28.75-27.66-65.81-44.8-105.63-49.78-6.64-.55-13.27-1.11-19.36-2.77a140.94,140.94,0,0,1,.56,26.55"/><path id="Path_1237" data-name="Path 1237" class="cls-1" d="M378.85,223.44a24.41,24.41,0,0,1,11.06.55,119.52,119.52,0,0,1,53.64,21.57,21,21,0,0,1-5-7.19c.55-.55.55-.55,1.1-.55.56-3.32-3.32-5-3.32-7.75a2.9,2.9,0,0,1,2.22-1.1c3.32,3.32,6.08,6.63,8.85,9.95,2.21-1.1,3.87.56,5.53,1.66,2.76,1.66,1.1,5.53,3.32,7.19.55,6.08,7.74,8.85,7.19,14.93,0,1.11,1.66.56,2.76,1.11l6.09,7.19c-1.11,1.66-.56,3.32,1.1,3.87,2.77,1.11,3.87-2.21,7.19-1.66,3.87,2.21-.55,5-.55,7.19,1.66,0,3.32-1.1,5,.55.56,2.22-1.66,3.32-2.76,5,0,2.21,1.66,1.66,3.32,2.21,1.66,0,2.76,1.66,2.76,3.32V292c5,5-1.66,10.5,1.11,16.59a9.86,9.86,0,0,1-2.77,9.95c0,4.43-3.87,7.19-5.53,10.51l-5,1.11c-2.77,2.76,2.21,6.08-.56,7.74l11.06.55-1.1-1.1A16.48,16.48,0,0,1,487.25,323a29.54,29.54,0,0,1,5.53-11.06c.55-.56,1.66-1.66,2.76,0a17.58,17.58,0,0,1-1.66,10.5A40.31,40.31,0,0,1,497.2,339c10-.56,19.36-.56,29.32-.56l-1.11-1.66a149.73,149.73,0,0,0-12.72-51.43c-2.21,0-3.32,1.66-6.09,1.11-.55-.56-1.1-1.11-1.1-1.66-3.87-3.87-6.64-8.85-11.06-12.17-5,.55-7.74-5.53-12.17-6.08-3.87-1.66-1.11-8.3-7.19-6.64-2.76-1.11-5.53-3.32-6.08-6.64a17.64,17.64,0,0,0-5.53-14.38c-3.32-1.1-5,3.32-8.85,2.77-1.66-1.11-1.11-3.32-1.66-5.53-.56-1.66-2.77-2.77-2.22-5,5-6.08-5.53-6.08-3.31-12.17-.56-4.42-5-6.08-7.19-9.4a164.09,164.09,0,0,0-48.67-13.83,45.93,45.93,0,0,1-12.17-1.66l1.11,1.66c-1.66,9.41-1.11,19.36-1.66,27.66"/><path id="Path_1238" data-name="Path 1238" class="cls-1" d="M487.25,233.94c2.21.56,2.76,2.77,3.87,4.43,7.19,3.87,8.85,11.61,15.48,16,3.32,7.74,12.17,13.27,12.17,21.57a150,150,0,0,1,14.93,61.94l-.55,1.11c1.11,0,1.66-.56,2.77-1.11l28.75-.55c-1.65-2.77-1.1-7.19-1.65-10.51-3.88-44.25-22.68-81.85-52-115.59-5.53,7.19-12.72,14.38-19.91,21.57Z"/><path id="Path_1239" data-name="Path 1239" class="cls-2" d="M382.72,175.87c1.11-1.66,3.32-1.1,4.42-.55l14.38-6.08c5.53.55,12.17,1.1,15.49,6.08v1.11c-3.32,3.31-8.3,5-12.72,3.31-6.64,1.11-15.49,5-21-1.65-.55-.56-1.1-1.66-.55-2.22"/><path id="Path_1240" data-name="Path 1240" class="cls-2" d="M468.44,194.12c2.22.56,3.88,1.66,4.43,3.88-.55,2.21,2.21,3.87.55,6.08-5.53,1.11-6.08-5-9.95-6.08a5,5,0,0,1-.56-2.77c1.11-2.76,3.32,1.11,5.53-1.11"/></g></g></svg>